<?xml version="1.0" standalone="no"?>
<!DOCTYPE svg PUBLIC "-//W3C//DTD SVG 20010904//EN"
 "http://www.w3.org/TR/2001/REC-SVG-20010904/DTD/svg10.dtd">
<svg version="1.0" xmlns="http://www.w3.org/2000/svg"
 width="1200.000000pt" height="1200.000000pt" viewBox="0 0 1200.000000 1200.000000"
 preserveAspectRatio="xMidYMid meet">
<metadata>
Created by potrace 1.11, written by Peter Selinger 2001-2013
</metadata>
<g transform="translate(0.000000,1200.000000) scale(0.100000,-0.100000)"
fill="#000000" stroke="none">
<path d="M1002 7729 c-232 -30 -402 -168 -443 -361 -14 -64 -6 -187 15 -248
23 -64 94 -150 160 -194 76 -50 140 -75 347 -136 213 -62 320 -113 384 -181
71 -76 89 -125 90 -239 0 -82 -4 -103 -26 -150 -67 -141 -223 -220 -439 -220
-190 0 -336 60 -469 191 l-51 51 -50 -42 -50 -42 20 -28 c55 -78 190 -164 330
-211 84 -29 111 -33 236 -37 158 -5 253 12 372 68 71 33 171 123 209 188 106
181 76 431 -71 577 -88 88 -196 136 -486 215 -210 58 -323 127 -371 228 -18
36 -23 63 -22 124 0 98 31 167 104 232 75 67 140 89 284 94 189 6 308 -35 415
-143 l53 -54 44 36 c23 19 43 39 43 43 0 4 -18 28 -40 53 -85 97 -238 169
-397 187 -98 11 -101 11 -191 -1z"/>
<path d="M10730 7725 c-141 -29 -246 -83 -328 -169 -98 -102 -142 -214 -142
-361 0 -149 43 -248 151 -350 85 -79 168 -120 354 -173 286 -82 363 -138 353
-258 -6 -69 -40 -114 -115 -151 -52 -25 -68 -28 -148 -27 -137 2 -267 57 -389
166 l-53 47 -89 -97 c-50 -53 -107 -116 -129 -140 l-38 -43 39 -40 c53 -55
188 -144 266 -176 34 -14 104 -36 154 -48 526 -134 994 168 935 604 -31 235
-177 385 -456 469 -55 17 -138 42 -185 56 -121 36 -189 79 -219 139 -31 63
-23 109 29 158 55 52 124 73 219 66 95 -6 171 -35 268 -100 l77 -51 59 65 c33
35 85 93 116 128 l56 64 -45 40 c-102 91 -239 155 -390 183 -94 17 -265 16
-350 -1z"/>
<path d="M2080 6805 l0 -885 65 0 65 0 0 430 0 430 365 0 365 0 0 60 0 60
-365 0 -365 0 0 335 0 335 465 0 465 0 0 60 0 60 -530 0 -530 0 0 -885z"/>
<path d="M3474 6808 l-39 -883 64 -3 c35 -2 65 -2 66 0 1 2 15 327 29 723 15
396 30 743 34 772 l7 52 290 -494 290 -495 46 0 46 0 298 495 c164 273 300
493 302 491 4 -4 62 -1397 63 -1503 l0 -43 65 0 65 0 -1 78 c0 42 -17 439 -37
882 l-37 805 -65 3 -65 2 -310 -520 c-170 -286 -312 -520 -315 -520 -3 0 -142
234 -308 520 l-304 520 -72 0 -72 0 -40 -882z"/>
<path d="M5480 6805 l0 -885 200 0 200 0 0 309 0 309 193 5 c204 5 260 14 367
63 126 58 229 171 279 307 23 65 26 85 25 207 -1 118 -4 144 -26 206 -50 140
-131 230 -263 295 -130 64 -169 69 -597 69 l-378 0 0 -885z m730 534 c59 -27
77 -44 108 -104 20 -40 25 -64 25 -120 -1 -107 -37 -176 -116 -217 -37 -20
-60 -23 -194 -26 l-153 -4 0 246 0 246 143 0 c121 0 149 -3 187 -21z"/>
<path d="M7020 6805 l0 -885 625 0 625 0 0 180 0 180 -420 0 -420 0 0 705 0
705 -205 0 -205 0 0 -885z"/>
<path d="M8462 7058 l3 -633 27 -80 c108 -317 394 -494 762 -472 134 9 212 28
325 83 129 63 231 163 289 285 77 158 75 139 79 832 l4 617 -206 0 -205 0 0
-542 c0 -300 -5 -573 -10 -611 -18 -122 -76 -208 -169 -251 -38 -17 -66 -21
-156 -21 -94 0 -118 3 -161 23 -63 29 -116 82 -146 147 l-23 50 -3 603 -3 602
-205 0 -205 0 3 -632z"/>
<path d="M5163 5435 c-41 -18 -56 -47 -63 -120 l-5 -60 -42 -3 c-29 -2 -43 -8
-43 -17 0 -9 14 -15 43 -17 l42 -3 3 -182 c2 -152 5 -183 17 -183 12 0 15 31
17 183 l3 182 68 3 c49 2 67 7 67 17 0 10 -18 15 -67 17 l-68 3 3 50 c4 69 28
99 81 103 26 2 52 -3 65 -12 25 -16 53 -6 41 14 -11 17 -69 40 -102 40 -15 -1
-42 -7 -60 -15z"/>
<path d="M6413 5435 c-41 -18 -56 -47 -63 -120 l-5 -60 -42 -3 c-29 -2 -43 -8
-43 -17 0 -9 14 -15 43 -17 l42 -3 3 -182 c2 -152 5 -183 17 -183 12 0 15 31
17 183 l3 182 68 3 c49 2 67 7 67 17 0 10 -18 15 -67 17 l-68 3 3 50 c4 69 28
99 81 103 26 2 52 -3 65 -12 25 -16 53 -6 41 14 -11 17 -69 40 -102 40 -15 -1
-42 -7 -60 -15z"/>
<path d="M7430 5140 c0 -283 0 -290 20 -290 19 0 20 7 20 113 0 136 12 182 56
224 41 38 91 50 146 34 63 -19 78 -63 78 -233 0 -134 1 -138 21 -138 21 0 21
3 17 158 -4 172 -12 203 -68 236 -64 37 -184 13 -232 -47 -17 -21 -18 -17 -18
106 0 120 -1 127 -20 127 -20 0 -20 -7 -20 -290z"/>
<path d="M11080 5330 c0 -55 -2 -100 -4 -100 -2 0 -20 7 -39 15 -70 29 -179
13 -230 -33 -52 -46 -78 -150 -58 -228 16 -64 46 -103 95 -125 71 -32 158 -19
213 33 l23 21 0 -31 c0 -25 4 -32 20 -32 20 0 20 7 20 290 0 283 0 290 -20
290 -19 0 -20 -7 -20 -100z m-36 -125 l38 -18 -4 -113 -3 -114 -37 -37 c-33
-32 -44 -37 -95 -40 -68 -4 -98 8 -129 54 -47 69 -39 174 17 238 50 57 132 68
213 30z"/>
<path d="M9250 5320 l0 -70 -40 0 c-29 0 -40 -4 -40 -15 0 -11 11 -15 40 -15
l40 0 0 -150 c0 -117 4 -158 15 -181 27 -51 104 -65 163 -29 28 17 32 23 21
36 -10 13 -14 13 -30 -2 -28 -25 -88 -23 -110 5 -17 20 -19 41 -19 172 l0 149
65 0 c51 0 65 3 65 15 0 12 -14 15 -65 15 l-65 0 0 70 c0 63 -2 70 -20 70 -18
0 -20 -7 -20 -70z"/>
<path d="M999 5240 c-72 -38 -119 -115 -119 -196 0 -17 12 -55 28 -85 36 -71
89 -108 165 -116 48 -5 64 -2 112 22 77 37 108 85 113 175 6 95 -30 160 -110
201 -49 25 -140 25 -189 -1z m148 -21 c34 -13 80 -55 99 -91 18 -34 18 -109 0
-151 -7 -18 -28 -45 -45 -60 -91 -76 -211 -44 -263 72 -37 82 -2 176 82 219
49 24 84 28 127 11z"/>
<path d="M1994 5241 c-22 -10 -50 -31 -62 -46 l-22 -28 0 42 c0 34 -3 41 -20
41 -19 0 -20 -7 -20 -200 0 -190 1 -200 19 -200 17 0 19 10 22 128 3 106 7
133 25 162 26 45 78 80 119 80 31 0 52 20 38 34 -12 12 -58 5 -99 -13z"/>
<path d="M2405 5248 c-49 -27 -65 -51 -65 -95 0 -63 26 -85 134 -113 49 -13
96 -31 106 -39 31 -27 33 -56 6 -88 -23 -26 -29 -28 -104 -28 -67 0 -85 4
-110 22 -27 20 -32 21 -43 7 -10 -13 -10 -17 2 -25 66 -45 146 -59 218 -39
105 28 135 132 53 186 -17 12 -65 29 -105 38 -93 21 -117 37 -117 80 0 70 95
98 182 53 37 -19 50 -21 58 -12 12 14 3 24 -47 49 -37 18 -138 21 -168 4z"/>
<path d="M2849 5240 c-72 -38 -119 -115 -119 -196 0 -17 12 -55 28 -85 36 -71
89 -108 165 -116 48 -5 64 -2 112 22 77 37 108 85 113 175 6 95 -30 160 -110
201 -49 25 -140 25 -189 -1z m148 -21 c34 -13 80 -55 99 -91 18 -34 18 -109 0
-151 -7 -18 -28 -45 -45 -60 -91 -76 -211 -44 -263 72 -37 82 -2 176 82 219
49 24 84 28 127 11z"/>
<path d="M3854 5241 c-22 -10 -50 -31 -62 -46 l-22 -28 0 42 c0 34 -3 41 -20
41 -19 0 -20 -7 -20 -200 0 -190 1 -200 19 -200 17 0 19 10 22 128 3 106 7
133 25 162 26 45 78 80 119 80 31 0 52 20 38 34 -12 12 -58 5 -99 -13z"/>
<path d="M4111 5249 c-44 -17 -81 -51 -101 -90 -59 -115 -22 -242 88 -295 68
-34 137 -30 207 10 41 25 45 30 33 43 -13 13 -20 11 -53 -11 -67 -46 -180 -29
-225 33 -49 69 -46 168 5 229 54 65 163 78 224 26 23 -19 31 -21 40 -11 12 15
-13 44 -56 66 -26 13 -128 14 -162 0z"/>
<path d="M4505 5237 c-100 -57 -133 -196 -70 -303 58 -98 225 -125 312 -49 21
18 25 26 16 35 -8 9 -18 7 -42 -11 -42 -31 -134 -38 -185 -14 -44 21 -75 62
-83 110 l-6 35 177 0 176 0 -6 43 c-12 79 -58 144 -117 166 -48 19 -128 13
-172 -12z m185 -37 c30 -21 60 -76 60 -109 0 -20 -4 -21 -151 -21 l-152 0 6
35 c8 46 34 80 82 105 48 25 111 21 155 -10z"/>
<path d="M5419 5240 c-72 -38 -119 -115 -119 -196 0 -17 12 -55 28 -85 36 -71
89 -108 165 -116 48 -5 64 -2 112 22 77 37 108 85 113 175 6 95 -30 160 -110
201 -49 25 -140 25 -189 -1z m148 -21 c34 -13 80 -55 99 -91 18 -34 18 -109 0
-151 -7 -18 -28 -45 -45 -60 -91 -76 -211 -44 -263 72 -37 82 -2 176 82 219
49 24 84 28 127 11z"/>
<path d="M5954 5241 c-22 -10 -50 -31 -62 -46 l-22 -28 0 42 c0 34 -3 41 -20
41 -19 0 -20 -7 -20 -200 0 -190 1 -200 19 -200 17 0 19 10 22 128 3 106 7
133 25 162 26 45 78 80 119 80 31 0 52 20 38 34 -12 12 -58 5 -99 -13z"/>
<path d="M6618 5239 c-21 -11 -38 -24 -38 -29 0 -18 20 -20 43 -5 34 22 117
30 161 15 40 -13 66 -51 66 -97 l0 -28 -97 0 c-108 0 -149 -14 -180 -61 -24
-37 -22 -117 3 -145 57 -65 181 -63 251 3 l23 21 0 -31 c0 -25 4 -32 20 -32
19 0 20 7 20 150 0 171 -9 208 -62 240 -45 28 -157 27 -210 -1z m195 -175 c36
-6 37 -8 37 -48 0 -103 -107 -169 -208 -127 -31 13 -49 46 -44 81 9 53 15 62
55 80 43 20 94 24 160 14z"/>
<path d="M7075 5248 c-49 -27 -65 -51 -65 -95 0 -63 26 -85 134 -113 49 -13
96 -31 106 -39 31 -27 33 -56 6 -88 -23 -26 -29 -28 -104 -28 -67 0 -85 4
-110 22 -27 20 -32 21 -43 7 -10 -13 -10 -17 2 -25 66 -45 146 -59 218 -39
105 28 135 132 53 186 -17 12 -65 29 -105 38 -93 21 -117 37 -117 80 0 70 95
98 182 53 37 -19 50 -21 58 -12 12 14 3 24 -47 49 -37 18 -138 21 -168 4z"/>
<path d="M8169 5240 c-72 -38 -119 -115 -119 -196 0 -17 12 -55 28 -85 36 -71
89 -108 165 -116 48 -5 64 -2 112 22 77 37 108 85 113 175 6 95 -30 160 -110
201 -49 25 -140 25 -189 -1z m148 -21 c34 -13 80 -55 99 -91 18 -34 18 -109 0
-151 -7 -18 -28 -45 -45 -60 -91 -76 -211 -44 -263 72 -37 82 -2 176 82 219
49 24 84 28 127 11z"/>
<path d="M8695 5248 c-11 -6 -35 -24 -52 -41 l-33 -31 0 37 c0 30 -4 37 -20
37 -19 0 -20 -7 -20 -200 0 -193 1 -200 20 -200 19 0 20 7 20 106 0 58 5 126
11 151 24 94 118 145 203 109 56 -23 66 -58 66 -226 0 -135 1 -140 21 -140 20
0 21 3 17 158 -4 174 -14 209 -68 237 -34 17 -135 20 -165 3z"/>
<path d="M9654 5241 c-22 -10 -50 -31 -62 -46 l-22 -28 0 42 c0 34 -3 41 -20
41 -19 0 -20 -7 -20 -200 0 -190 1 -200 19 -200 17 0 19 10 22 128 3 106 7
133 25 162 26 45 78 80 119 80 31 0 52 20 38 34 -12 12 -58 5 -99 -13z"/>
<path d="M9895 5237 c-100 -57 -133 -196 -70 -303 58 -98 225 -125 312 -49 21
18 25 26 16 35 -8 9 -18 7 -42 -11 -42 -31 -134 -38 -185 -14 -44 21 -75 62
-83 110 l-6 35 177 0 176 0 -6 43 c-12 79 -58 144 -117 166 -48 19 -128 13
-172 -12z m185 -37 c30 -21 60 -76 60 -109 0 -20 -4 -21 -151 -21 l-152 0 6
35 c8 46 34 80 82 105 48 25 111 21 155 -10z"/>
<path d="M10405 5248 c-11 -6 -35 -24 -52 -41 l-33 -31 0 37 c0 30 -4 37 -20
37 -19 0 -20 -7 -20 -200 0 -193 1 -200 20 -200 19 0 20 7 20 106 0 58 5 126
11 151 24 94 118 145 203 109 56 -23 66 -58 66 -226 0 -135 1 -140 21 -140 20
0 21 3 17 158 -4 174 -14 209 -68 237 -34 17 -135 20 -165 3z"/>
<path d="M11305 5248 c-49 -27 -65 -51 -65 -95 0 -63 26 -85 134 -113 49 -13
96 -31 106 -39 31 -27 33 -56 6 -88 -23 -26 -29 -28 -104 -28 -67 0 -85 4
-110 22 -27 20 -32 21 -43 7 -10 -13 -10 -17 2 -25 66 -45 146 -59 218 -39
105 28 135 132 53 186 -17 12 -65 29 -105 38 -93 21 -117 37 -117 80 0 70 95
98 182 53 37 -19 50 -21 58 -12 12 14 3 24 -47 49 -37 18 -138 21 -168 4z"/>
<path d="M470 5247 c0 -3 40 -92 89 -198 l89 -193 -19 -51 c-32 -82 -50 -100
-100 -101 -61 -1 -63 -2 -49 -19 8 -10 30 -15 60 -15 67 0 83 22 170 242 41
100 88 218 106 261 l33 77 -23 0 c-20 0 -29 -19 -85 -162 -35 -90 -66 -166
-70 -170 -4 -5 -41 67 -82 160 -61 136 -79 168 -97 170 -12 2 -22 1 -22 -1z"/>
<path d="M1400 5103 c0 -122 4 -155 19 -189 42 -93 191 -101 264 -15 l27 33 0
-41 c0 -34 3 -41 20 -41 19 0 20 7 20 200 0 190 -1 200 -19 200 -18 0 -19 -10
-23 -132 -3 -119 -6 -137 -26 -171 -30 -47 -68 -67 -127 -67 -99 0 -115 33
-115 230 0 133 -1 140 -20 140 -19 0 -20 -7 -20 -147z"/>
<path d="M3260 5103 c0 -122 4 -155 19 -189 42 -93 191 -101 264 -15 l27 33 0
-41 c0 -34 3 -41 20 -41 19 0 20 7 20 200 0 190 -1 200 -19 200 -18 0 -19 -10
-23 -132 -3 -119 -6 -137 -26 -171 -30 -47 -68 -67 -127 -67 -99 0 -115 33
-115 230 0 133 -1 140 -20 140 -19 0 -20 -7 -20 -147z"/>
<path d="M7900 5050 c0 -193 1 -200 20 -200 19 0 20 7 20 200 0 193 -1 200
-20 200 -19 0 -20 -7 -20 -200z"/>
</g>
</svg>
